<svg t="1762752120019" class="icon" viewBox="0 0 1024 1024" version="1.1" xmlns="http://www.w3.org/2000/svg" p-id="2028" width="200" height="200"><path d="M865.02909064 749.56727291c0 35.96727291-19.01454581 44.21454581-19.01454483 44.21454482L500.77454581 993.09090936A38.71636355 38.71636355 0 0 1 466.18181773 993.09090936S127.12727291 796.07272709 114.75636355 786.90909064a29.55272709 29.55272709 0 0 1-12.6-22.90909064V357.13454581c0-17.86909064 22.90909064-30.46909064 22.90909064-30.46909162l337.90909162-195.8727271a45.81818227 45.81818227 0 0 1 41.00727192 0l331.26545518 192.66545518a47.19272709 47.19272709 0 0 1 28.63636354 47.19272709v378.91636355z m-135.16363645-389.45454582L497.10909064 225.63636355a36.42545419 36.42545419 0 0 0-32.30181773 0L198.83272709 377.98181773s-17.64 10.53818227-17.41090936 24.74181872 0 318.89454581 0 318.89454582a22.90909064 22.90909064 0 0 0 9.85090936 17.18181773c9.85090936 6.87272709 274.90909064 160.36363645 274.90909064 160.36363645a30.01090936 30.01090936 0 0 0 27.26181872 0c16.49454581-9.16363645 270.55636355-155.55272709 270.55636355-155.55272709s14.89090936-6.41454581 14.89090936-34.59272709v-79.49454582l-297.81818227 180.98181774V741.09090936a69.87272709 69.87272709 0 0 1 22.90909064-47.42181872L768.58181773 534.90909064a55.89818227 55.89818227 0 0 0 12.6-33.44727291v-71.24727192l-300.33818128 181.44v-73.30909162a50.85818227 50.85818227 0 0 1 19.01454582-41.00727192z m219.01090936-255.43636354a8.93454581 8.93454581 0 0 0-8.47636355-9.62181774H878.54545419V32.28363645c0-3.66545419-5.95636355-5.04-12.14181774-5.04L832.72727291 32.74181773c-4.12363645 0-7.10181773 2.74909064-7.10181872 5.26909163V95.05454581H764a9.16363645 9.16363645 0 0 0-8.24727291 8.47636355v45.81818128h68.72727291V214.18181773c0 3.66545419 5.95636355 6.18545419 12.37090936 5.26909163l34.59272709-5.72727291c4.12363645 0 6.64363645-2.97818227 6.64363646-5.26909064V148.66181773h68.7272729z" fill="#409EFF" p-id="2029"></path></svg>
